HIERARCHY
ROOT Hips
{
	OFFSET	0.000000	0.000000	0.000000
	CHANNELS 6 Xposition Yposition Zposition Zrotation Xrotation Yrotation
	JOINT LeftHip
	{
		OFFSET	4.822834	0.000000	0.000000
		CHANNELS 3 Zrotation Xrotation Yrotation
		JOINT LeftKnee
		{
			OFFSET	0.000000	-16.338583	0.000000
			CHANNELS 3 Zrotation Xrotation Yrotation
			JOINT LeftAnkle
			{
				OFFSET	0.000000	-15.354330	0.000000
				CHANNELS 3 Zrotation Xrotation Yrotation
				End Site
				{
					OFFSET	0.000000	-4.921260	-3.149606
				}
			}
		}
	}
	JOINT RightHip
	{
		OFFSET	-4.822834	0.000000	0.000000
		CHANNELS 3 Zrotation Xrotation Yrotation
		JOINT RightKnee
		{
			OFFSET	0.000000	-16.338583	0.000000
			CHANNELS 3 Zrotation Xrotation Yrotation
			JOINT RightAnkle
			{
				OFFSET	0.000000	-15.354330	0.000000
				CHANNELS 3 Zrotation Xrotation Yrotation
				End Site
				{
					OFFSET	0.000000	-4.921260	-3.149606
				}
			}
		}
	}
	JOINT Chest
	{
		OFFSET	0.000000	2.952756	-2.755905
		CHANNELS 3 Zrotation Xrotation Yrotation
		JOINT LeftCollar
		{
			OFFSET	0.000000	20.078739	2.755905
			CHANNELS 3 Zrotation Xrotation Yrotation
			JOINT LeftShoulder
			{
				OFFSET	7.086614	0.000000	0.000000
				CHANNELS 3 Zrotation Xrotation Yrotation
				JOINT LeftElbow
				{
					OFFSET	0.000000	-11.220472	0.000000
					CHANNELS 3 Zrotation Xrotation Yrotation
					JOINT LeftWrist
					{
						OFFSET	0.000000	-9.448818	0.000000
						CHANNELS 3 Zrotation Xrotation Yrotation
						End Site
						{
							OFFSET	0.000000	-6.299212	0.000000
						}
					}
				}
			}
		}
		JOINT RightCollar
		{
			OFFSET	0.000000	20.078739	2.755905
			CHANNELS 3 Zrotation Xrotation Yrotation
			JOINT RightShoulder
			{
				OFFSET	-7.086614	0.000000	0.000000
				CHANNELS 3 Zrotation Xrotation Yrotation
				JOINT RightElbow
				{
					OFFSET	0.000000	-11.220472	0.000000
					CHANNELS 3 Zrotation Xrotation Yrotation
					JOINT RightWrist
					{
						OFFSET	0.000000	-9.448818	0.000000
						CHANNELS 3 Zrotation Xrotation Yrotation
						End Site
						{
							OFFSET	0.000000	-6.299212	0.000000
						}
					}
				}
			}
		}
		JOINT Neck
		{
			OFFSET	0.000000	20.078739	2.755905
			CHANNELS 3 Zrotation Xrotation Yrotation
			JOINT Head
			{
				OFFSET	0.000000	2.362205	0.000000
				CHANNELS 3 Zrotation Xrotation Yrotation
				End Site
				{
					OFFSET	0.000000	7.086614	0.000000
				}
			}
		}
	}
}
MOTION
Frames:     19
Frame Time: 0.041667
3.626724	36.413799	4.720469	-4.085905	4.936764	32.791763	5.490185	-22.401365	4.124584	0.000000	30.240599	0.000000	-10.097937	-1.046599	2.984164	6.443369	-6.276258	-1.867477	0.000000	3.545177	0.000000	-0.737986	-1.687907	-17.956553	5.324987	5.185144	1.196014	-14.822072	2.817791	-0.107118	21.306738	4.644240	7.772346	-4.000000	-23.596226	0.000000	-16.735739	1.998046	-6.973721	19.177927	2.817791	-0.107118	-29.034138	7.171188	3.702540	4.000000	-31.035746	0.000000	-0.045224	-1.669257	0.633812	-1.452751	3.953075	0.126623	-1.783787	-3.115280	6.417242	
3.720705	36.413036	4.831508	-3.940272	4.794121	32.112686	5.654787	-22.076868	4.150706	0.000000	30.487215	0.000000	-10.237385	-1.340816	3.303513	6.432264	-5.875313	-1.905984	0.000000	3.545177	0.000000	-0.737986	-1.687907	-17.956553	5.323020	3.976649	1.196171	-14.983669	2.657047	-0.093511	21.370014	6.001251	7.858311	-4.000000	-24.717157	0.000000	-22.406933	2.697135	-6.965372	19.016327	2.657047	-0.093511	-28.839609	7.182928	3.678236	4.000000	-31.036001	0.000000	0.277055	-1.665478	0.635044	-1.321019	3.993410	0.115142	-3.979794	-3.386982	6.996062	
3.699548	36.415081	4.714665	-3.761610	4.638773	31.132904	5.643140	-21.676796	4.100584	0.000000	30.460684	0.000000	-10.129747	-1.630003	3.704491	6.432264	-5.875313	-1.905984	0.000000	3.542209	0.000000	-1.035890	-1.536570	-17.938799	5.322627	3.734950	1.196197	-15.387237	2.416036	-0.068004	21.426756	7.253958	7.936531	-4.000000	-25.020504	0.000000	-26.121531	3.835727	-7.590631	18.612761	2.416036	-0.068004	-28.475786	7.623745	3.655379	4.000000	-31.036127	0.000000	0.438194	-1.663586	0.635652	-1.148438	3.993733	0.100102	-6.289557	-3.554583	7.526101	
3.701721	36.405266	4.800859	-3.601085	4.444863	30.021324	5.793459	-20.872528	4.062434	0.000000	30.896753	0.000000	-10.088229	-2.154375	3.943865	6.585415	-5.550232	-1.921056	0.000000	3.541243	0.000000	-1.188851	-1.486202	-17.931273	5.724448	2.928611	1.189266	-16.274338	2.255679	-0.028563	22.356058	8.363924	7.879234	-4.000000	-25.394518	0.000000	-27.038549	4.934059	-7.567300	17.725658	2.255679	-0.028563	-28.007658	7.965863	3.398049	4.000000	-31.036127	0.000000	0.599340	-1.663606	0.636128	-0.962480	4.020745	0.083894	-8.070024	-3.772093	7.711541	
3.680355	36.390331	4.837758	-3.329915	3.994501	28.668619	6.455638	-19.975838	4.185371	0.000000	30.825581	0.000000	-10.420300	-2.597785	4.908521	6.736435	-5.145133	-1.946004	0.000000	3.790617	0.000000	-1.312706	-1.606360	-17.205683	5.966910	3.250446	1.426732	-16.677485	2.255824	-0.012695	23.196562	9.582657	7.805371	-4.000000	-25.178749	0.000000	-26.178549	4.661344	-7.583148	17.322514	2.255824	-0.012695	-27.812752	7.977278	3.371019	4.000000	-31.036127	0.000000	0.599340	-1.663606	0.636128	-0.762436	4.021007	0.066458	-9.501255	-3.864191	7.768528	
3.664960	36.376972	4.913460	-3.032165	3.456969	27.369387	6.428283	-19.017294	4.052865	0.000000	31.218811	0.000000	-10.473413	-3.373122	5.708876	6.883386	-4.579959	-1.989759	0.000000	4.007814	0.000000	-1.291786	-1.672753	-16.804747	6.127878	3.089017	2.149046	-17.161238	2.094718	0.005894	23.933525	10.596235	7.710717	-4.000000	-24.864641	0.000000	-24.015682	3.113338	-7.629600	16.838758	2.094718	0.005894	-27.636379	8.302039	2.835087	4.000000	-30.552727	0.000000	0.599340	-1.663606	0.636128	-0.642246	4.021135	0.055982	-10.331444	-3.766013	7.864323	
3.765513	36.372444	4.903109	-2.916198	3.064249	26.555418	6.415542	-18.537998	3.987077	0.000000	31.296122	0.000000	-11.077831	-3.829171	6.990245	6.875204	-4.259447	-2.022960	0.000000	4.223615	0.000000	-1.502029	-1.669671	-16.393301	6.369453	2.927426	2.628261	-17.402946	1.369595	0.009631	24.472425	11.513851	7.628849	-4.000000	-24.800215	0.000000	-21.438768	2.303428	-7.652009	16.597052	1.369595	0.009631	-27.484571	9.044763	2.420458	4.000000	-29.972458	0.000000	0.357631	-1.666446	0.635214	-0.481841	4.021272	0.042001	-10.975028	-2.973452	8.176982	
3.708836	36.351315	4.976316	-2.855064	2.777756	25.859482	6.570807	-17.974983	3.962962	0.000000	31.693783	0.000000	-10.975500	-4.303430	7.637540	7.111410	-4.013050	-2.030859	0.000000	4.436586	0.000000	-1.529996	-1.882112	-16.074209	6.370078	3.249691	3.031059	-17.402922	1.208466	0.008498	24.213118	12.260186	7.697726	-4.000000	-23.631788	0.000000	-19.079275	2.090981	-8.392014	16.597078	1.208466	0.008498	-27.234541	9.793239	1.670505	4.000000	-29.115099	0.000000	0.194720	-1.496489	0.635075	-0.321196	3.994655	0.027998	-11.292832	-1.697414	8.516547	
3.840163	36.343441	5.010539	-2.896998	2.560588	25.431534	6.570807	-17.974983	3.962962	0.000000	32.043716	0.000000	-10.746240	-4.726863	7.800300	7.103471	-3.692673	-2.065316	0.000000	4.456343	0.000000	-1.565388	-2.067681	-15.915540	6.690151	2.040557	3.508975	-17.402889	0.966773	0.006798	23.620136	12.287642	8.452207	-4.000000	-21.583920	0.000000	-16.200520	1.615037	-9.033913	16.597111	0.966773	0.006798	-27.297049	10.838311	0.561407	4.000000	-28.148302	0.000000	0.194720	-1.496489	0.635075	-0.173732	3.874596	0.015145	-11.682143	0.416425	8.534813	
3.808762	36.322330	5.072453	-2.936833	2.357187	25.148739	6.896731	-17.488148	3.997843	0.000000	32.582726	0.000000	-10.702440	-5.052635	7.802808	7.341663	-3.526623	-1.825920	0.000000	4.623410	0.000000	-1.641629	-2.277894	-16.078501	6.688184	1.073763	3.670161	-17.402857	0.644515	0.004532	22.730438	12.326430	9.270267	-4.000000	-19.521605	0.000000	-13.102494	1.197668	-9.005589	16.597141	0.644515	0.004532	-27.354189	11.778835	-0.446125	4.000000	-27.568224	0.000000	0.194720	-1.496489	0.635075	-0.026715	3.834618	0.002329	-12.039330	1.923930	8.252263	
3.771899	36.306957	5.061891	-2.945231	2.161547	24.960337	7.305730	-16.999453	4.051674	0.000000	32.947014	0.000000	-10.646533	-5.482049	7.802290	7.499141	-3.362614	-1.512056	0.000000	4.629081	0.000000	-1.708640	-2.515290	-16.081453	6.849346	1.073431	3.667368	-17.161142	0.644529	0.001813	21.810593	11.631274	9.629237	-4.000000	-18.378193	0.000000	-10.176660	0.135821	-8.974498	16.838856	0.644529	0.001813	-27.392763	12.405830	-1.466323	4.000000	-26.988148	0.000000	0.355863	-1.496510	0.635521	0.080112	3.807958	-0.006984	-12.216105	2.314294	7.803957	
3.879846	36.298237	5.143318	-2.932127	1.955314	24.821985	7.553919	-16.833759	4.100524	0.000000	33.482273	0.000000	-10.624610	-5.644838	7.803826	7.491473	-3.042477	-1.226394	0.000000	4.813799	0.000000	-1.798027	-2.831731	-16.085831	6.847836	0.348335	3.667387	-17.000000	0.483398	0.000000	20.922848	11.664996	9.808477	-4.000000	-18.636135	0.000000	-6.647653	-1.343640	-9.076560	17.000000	0.483398	0.000000	-27.412199	12.719321	-2.080972	4.000000	-26.504940	0.000000	0.597569	-1.493669	0.636397	0.186919	3.807935	-0.016295	-12.438523	2.542591	7.362573	
3.826496	36.268238	5.270685	-3.032957	1.719265	24.300404	9.046194	-16.155121	5.388155	0.000000	33.487507	0.000000	-10.833198	-5.889346	7.808219	7.890946	-2.872961	-1.063300	0.000000	5.079668	0.000000	-2.039411	-2.831905	-16.080601	7.008104	-0.054835	4.147995	-16.999998	0.241699	0.000000	19.826818	11.389984	9.999713	-4.000000	-19.549425	0.000000	-3.490573	-3.174839	-11.557178	16.999998	0.241699	0.000000	-27.444824	13.241795	-2.581422	4.000000	-26.504940	0.000000	0.597569	-1.493669	0.636397	0.293703	3.807897	-0.025603	-12.515421	2.798907	6.909179	
3.622721	36.241516	5.291930	-2.934264	1.402218	23.673494	9.855766	-15.336433	6.591552	0.000000	33.492683	0.000000	-10.800267	-6.133425	7.810790	8.288477	-2.623674	-0.832203	0.000000	5.083366	0.000000	-2.245024	-2.990224	-16.079512	7.330315	-0.055537	4.948079	-16.999998	0.241699	0.000000	19.136805	11.412092	11.497685	-4.000000	-20.377153	0.000000	-2.736395	-5.492253	-15.347116	16.999998	0.241699	0.000000	-27.471128	13.659765	-2.876790	4.000000	-26.763023	0.000000	1.085444	-1.919525	0.637226	0.387109	3.807848	-0.033746	-12.401803	2.940491	6.311233	
3.781650	36.237423	5.533850	-2.814397	0.977330	23.633339	9.332603	-14.638817	6.324440	0.000000	33.552292	0.000000	-10.683662	-6.292393	7.168279	8.268721	-1.744753	-0.944814	0.000000	5.083366	0.000000	-2.245024	-2.990224	-16.079512	7.330315	-0.055537	5.109212	-17.322268	0.241695	0.001359	19.316656	10.885492	12.558566	-4.000000	-21.159122	0.000000	-0.647962	-7.434616	-18.961065	16.677729	0.241695	0.001359	-27.497622	14.077726	-3.171925	4.000000	-27.053190	0.000000	1.246587	-1.917625	0.637867	0.453979	3.834462	-0.039575	-12.104877	3.100306	5.758172	
3.983102	36.246738	5.502000	-2.743638	0.687154	23.602392	8.993015	-14.409861	6.197010	0.000000	33.252785	0.000000	-10.597626	-6.228546	6.519538	8.018599	-1.350194	-0.679305	0.000000	5.087039	0.000000	-2.289728	-3.148388	-16.082035	7.651215	-0.620234	5.264760	-17.322268	0.241695	0.001359	20.288885	10.539211	12.347141	-4.000000	-21.609350	0.000000	3.322884	-7.848250	-20.487848	16.677729	0.241695	0.001359	-27.497622	14.077726	-3.381398	4.000000	-27.052931	0.000000	0.924301	-1.921423	0.636580	0.507342	3.834423	-0.044226	-11.883573	3.460869	5.428053	
4.058522	36.237537	5.580362	-2.693431	0.467157	23.570143	8.982384	-14.013173	6.125074	0.000000	33.286961	0.000000	-10.643817	-6.188187	6.114902	8.012156	-1.030402	-0.718765	0.000000	5.271553	0.000000	-2.379179	-3.464640	-16.087465	7.811910	-0.781744	5.261969	-17.886271	0.563897	0.008723	20.960091	10.096231	11.563550	-4.000000	-21.388866	0.000000	6.749382	-7.255162	-20.094585	16.113726	0.563897	0.008723	-27.510942	14.286703	-3.581246	4.000000	-27.052931	0.000000	0.924301	-1.921423	0.636580	0.561001	3.874380	-0.048903	-11.902941	3.484432	5.184187	
4.021801	36.239223	5.478070	-2.635666	0.305753	23.604080	8.974260	-13.695812	6.067668	0.000000	33.317661	0.000000	-10.664107	-6.318975	5.792446	8.012156	-1.030402	-0.718765	0.000000	5.271553	0.000000	-2.379179	-3.464640	-16.087465	7.811910	-0.781744	5.261969	-17.000000	0.563965	0.000000	21.254452	10.084656	11.197769	-4.000000	-21.107763	0.000000	5.724733	-5.045087	-16.507574	17.000000	0.563965	0.000000	-27.324963	14.507569	-4.040425	4.000000	-27.052931	0.000000	0.924301	-1.921423	0.636580	0.561001	3.874380	-0.048903	-11.917071	3.592227	5.210169	
4.108549	36.234642	5.695545	-2.566328	0.191901	23.705711	8.974260	-13.695812	6.067668	0.000000	33.317661	0.000000	-10.503069	-6.318820	5.791605	8.004414	-0.630656	-0.768035	0.000000	5.448799	0.000000	-2.379179	-3.464640	-16.087465	8.053515	-0.782327	5.257791	-17.000000	0.805664	0.000000	21.254452	10.084656	11.197769	-4.000000	-20.373077	0.000000	1.639460	-1.226665	-9.829303	17.000000	0.805664	0.000000	-27.324963	14.507569	-4.354634	4.000000	-27.053385	0.000000	1.488302	-1.914771	0.638818	0.561001	3.874380	-0.048903	-11.917071	3.592227	5.210169	
